<svg width="25" height="24" viewBox="0 0 25 24" fill="none" xmlns="http://www.w3.org/2000/svg">
  <path opacity="0.4" d="M21.5899 21.5C21.5899 21.78 21.3699 22 21.0899 22H3.90991C3.62991 22 3.40991 21.78 3.40991 21.5C3.40991 17.36 7.48991 14 12.4999 14C13.5299 14 14.5299 14.14 15.4499 14.41C14.8599 15.11 14.4999 16.02 14.4999 17C14.4999 17.75 14.7099 18.46 15.0799 19.06C15.2799 19.4 15.5399 19.71 15.8399 19.97C16.5399 20.61 17.4699 21 18.4999 21C19.6199 21 20.6299 20.54 21.3499 19.8C21.5099 20.34 21.5899 20.91 21.5899 21.5Z" fill="white"/>
  <path d="M21.47 14.33C20.75 13.51 19.68 13 18.5 13C17.38 13 16.36 13.46 15.63 14.21C14.93 14.93 14.5 15.92 14.5 17C14.5 17.75 14.71 18.46 15.08 19.06C15.28 19.4 15.54 19.71 15.84 19.97C16.54 20.61 17.47 21 18.5 21C19.96 21 21.23 20.22 21.92 19.06C22.13 18.72 22.29 18.33 22.38 17.93C22.46 17.63 22.5 17.32 22.5 17C22.5 15.98 22.11 15.04 21.47 14.33ZM20 17.73H19.25V18.51C19.25 18.92 18.91 19.26 18.5 19.26C18.09 19.26 17.75 18.92 17.75 18.51V17.73H17C16.59 17.73 16.25 17.39 16.25 16.98C16.25 16.57 16.59 16.23 17 16.23H17.75V15.52C17.75 15.11 18.09 14.77 18.5 14.77C18.91 14.77 19.25 15.11 19.25 15.52V16.23H20C20.41 16.23 20.75 16.57 20.75 16.98C20.75 17.39 20.41 17.73 20 17.73Z" fill="white"/>
  <path d="M12.5 12C15.2614 12 17.5 9.76142 17.5 7C17.5 4.23858 15.2614 2 12.5 2C9.73858 2 7.5 4.23858 7.5 7C7.5 9.76142 9.73858 12 12.5 12Z" fill="white"/>
</svg>
